{"title":"Prasthanam - Telugu - 2010 - X264 - AC3 - Subs - ICF","uid":6023008,"size":1779813335,"categoryP":"video","categoryS":"movies","magnet":"?xt=urn:btih:e7528a038e35a7de530a3d627b9316c6b9110524&amp;dn=Prasthanam+-+Telugu+-+2010+-+X264+-+AC3+-+Subs+-+ICF&amp;tr=udp%3A%2F%2Ftracker.openbittorrent.com%3A80&amp;tr=udp%3A%2F%2Fopen.demonii.com%3A1337&amp;tr=udp%3A%2F%2Ftracker.coppersurfer.tk%3A6969&amp;tr=udp%3A%2F%2Fexodus.desync.com%3A6969","seeders":0,"leechers":1,"uploader":"RajMahal","files":2,"time":1291860116,"description":"General\n\nFormat                           : Matroska\nFile size                        : 1.66 GiB\nDuration                         : 2h 53mn\nOverall bit rate                 : 1 365 Kbps\nEncoded date                     : UTC 2010-12-09 00:22:47\nWriting library                  : libebml v1.0.0 + libmatroska v1.0.0\n\nEncoded By RajMahal @ Team ICF\n\nVideo\n\nID                               : 1\nFormat                           : AVC\nFormat/Info                      : Advanced Video Codec\nFormat profile                   : &lt;a class=&quot;__cf_email__&quot; href=&quot;/cdn-cgi/l/email-protection&quot; data-cfemail=&quot;2068494748606c140e11&quot;&gt;[email&amp;#160;protected]&lt;/a&gt;&lt;script cf-hash='f9e31' type=&quot;text/javascript&quot;&gt;\n/* &lt;![CDATA[ */!function(){try{var t=&quot;currentScript&quot;in document?document.currentScript:function(){for(var t=document.getElementsByTagName(&quot;script&quot;),e=t.length;e--;)if(t[e].getAttribute(&quot;cf-hash&quot;))return t[e]}();if(t&amp;&amp;t.previousSibling){var e,r,n,i,c=t.previousSibling,a=c.getAttribute(&quot;data-cfemail&quot;);if(a){for(e=&quot;&quot;,r=parseInt(a.substr(0,2),16),n=2;a.length-n;n+=2)i=parseInt(a.substr(n,2),16)^r,e+=String.fromCharCode(i);e=document.createTextNode(e),c.parentNode.replaceChild(e,c)}}}catch(u){}}();/* ]]&gt; */&lt;/script&gt;\nFormat settings, CABAC           : Yes\nFormat settings, ReFrames        : 3 frames\nMuxing mode                      : Header stripping\nCodec ID                         : V_MPEG4/ISO/AVC\nDuration                         : 2h 53mn\nBit rate mode                    : Variable\nBit rate                         : 1 177 Kbps\nMaximum bit rate                 : 5 000 Kbps\nWidth                            : 928 pixels\nHeight                           : 400 pixels\nDisplay aspect ratio             : 2.35:1\nFrame rate                       : 23.976 fps\nColor space                      : YUV\nChroma subsampling               : 4:2:0\nBit depth                        : 8 bits\nScan type                        : Progressive\nBits/(Pixel*Frame)               : 0.132\nStream size                      : 1.43 GiB (86%)\n\nAudio\n\nID                               : 2\nFormat                           : AC-3\nFormat/Info                      : Audio Coding 3\nMode extension                   : CM (complete main)\nMuxing mode                      : Header stripping\nCodec ID                         : A_AC3\nDuration                         : 2h 53mn\nBit rate mode                    : Constant\nBit rate                         : 160 Kbps\nChannel(s)                       : 6 channels\nChannel positions                : Front: L C R, Side: L R, LFE\nSampling rate                    : 48.0 KHz\nBit depth                        : 16 bits\nCompression mode                 : Lossy\nVideo delay                      : 2ms\nStream size                      : 199 MiB (12%)\n\n\n","torrent":{"xt":"urn:btih:e7528a038e35a7de530a3d627b9316c6b9110524","amp;dn":"Prasthanam+-+Telugu+-+2010+-+X264+-+AC3+-+Subs+-+ICF","amp;tr":["udp%3A%2F%2Ftracker.openbittorrent.com%3A80","udp%3A%2F%2Fopen.demonii.com%3A1337","udp%3A%2F%2Ftracker.coppersurfer.tk%3A6969","udp%3A%2F%2Fexodus.desync.com%3A6969"],"infoHash":"e7528a038e35a7de530a3d627b9316c6b9110524","infoHashBuffer":{"type":"Buffer","data":[231,82,138,3,142,53,167,222,83,10,61,98,123,147,22,198,185,17,5,36]},"announce":[],"urlList":[]}}